<svg id="Logo_2" data-name="Logo 2" xmlns="http://www.w3.org/2000/svg" xmlns:xlink="http://www.w3.org/1999/xlink" viewBox="0 0 247.85 112.41"><defs><style>.cls-1{fill:#231f20;}.cls-2{fill:#ed1c24;}</style><symbol id="New_Symbol" data-name="New Symbol" viewBox="0 0 247.85 112.41"><path class="cls-1" d="M20.7,55.2l40.2,55.2H39.6L0,55.2,39.6,0H60.9Z"/><path class="cls-2" d="M76,99.36q-2.2-3-4.44-6c-1.38-1.85-2.76-3.7-4.14-5.53a34.13,34.13,0,0,1,13.71-8.42,51.94,51.94,0,0,1,12.19-2,40,40,0,0,0,8.77-1.32,19.86,19.86,0,0,0,8.1-5,19.2,19.2,0,0,0,5.19-7.87,37.14,37.14,0,0,0,1.36-8.52,48.12,48.12,0,0,1,2.08-11.86,33,33,0,0,1,8.66-13.33A34.31,34.31,0,0,1,141.17,21a53,53,0,0,1,12.19-2,39.88,39.88,0,0,0,8.77-1.32,21.22,21.22,0,0,0,2-.76,21.74,21.74,0,0,0,7.76-5.88l4.69,6.31,3.86,5.22A34.31,34.31,0,0,1,166.74,31a52.41,52.41,0,0,1-12.19,2,39.77,39.77,0,0,0-8.77,1.33,19.8,19.8,0,0,0-8.1,5,19,19,0,0,0-5.19,7.87,36.59,36.59,0,0,0-1.37,8.52,48.54,48.54,0,0,1-2.07,11.86A33.13,33.13,0,0,1,120.39,81a34.19,34.19,0,0,1-13.72,8.41,51.94,51.94,0,0,1-12.19,2,54.28,54.28,0,0,0-6.38.75c-1.16.23-2.06.49-2.39.58C81.58,93.91,77.73,97.56,76,99.36Z"/><path class="cls-1" d="M186.65,0h21l40.2,55.2L208,110.4h-21.3l40.2-55.2Z"/><path class="cls-2" d="M60.67,112.41"/><path class="cls-2" d="M72.21,106.65"/></symbol></defs><use width="247.85" height="112.41" xlink:href="#New_Symbol"/></svg>